name Run_400 01_newCOP3_v24.mot
datacolumns 19
datarows 112
range 0.058333 0.173958
DataType=double
version=3
OpenSimVersion=4.3-2021-08-27-4bc7ad9
endheader
time	R_ground_force_vx	R_ground_force_vy	R_ground_force_vz	R_ground_force_px	R_ground_force_py	R_ground_force_pz	L_ground_force_vx	L_ground_force_vy	L_ground_force_vz	L_ground_force_px	L_ground_force_py	L_ground_force_pz	R_ground_torque_x	R_ground_torque_y	R_ground_torque_z	L_ground_torque_x	L_ground_torque_y	L_ground_torque_z
0.058333	0	0	0	0	0	0	-240.869553	1278.913818	-160.648331	1.04968	0	-0.275348	0	0	0	-0	31.134735	-0
0.059375	0	0	0	0	0	0	-240.131546	1300.225342	-157.379578	1.046463	0	-0.275127	0	0	0	-0	28.093576	-0
0.060417	0	0	0	0	0	0	-239.335007	1322.133057	-153.966675	1.043245	0	-0.274904	0	0	0	-0	24.989506	-0
0.061458	0	0	0	0	0	0	-238.470474	1344.496826	-150.421371	1.04004	0	-0.274681	0	0	0	-0	21.838905	-0
0.0625	0	0	0	0	0	0	-237.527359	1367.192749	-146.755325	1.036861	0	-0.274458	0	0	0	-0	18.659306	-0
0.063542	0	0	0	0	0	0	-236.494568	1390.106812	-142.980621	1.033714	0	-0.274236	0	0	0	-0	15.469254	-0
0.064583	0	0	0	0	0	0	-235.361008	1413.131348	-139.110214	1.030604	0	-0.274014	0	0	0	-0	12.288161	-0
0.065625	0	0	0	0	0	0	-234.115891	1436.163818	-135.158173	1.027533	0	-0.273794	0	0	0	-0	9.136132999999999	-0
0.066667	0	0	0	0	0	0	-232.749054	1459.105713	-131.139877	1.0245	0	-0.273577	0	0	0	-0	6.033769	-0
0.067708	0	0	0	0	0	0	-231.251297	1481.862183	-127.07206	1.021504	0	-0.273362	0	0	0	-0	3.001941	-0
0.06875000000000001	0	0	0	0	0	0	-229.614517	1504.342041	-122.972778	1.018543	0	-0.273152	0	0	0	-0	0.061555	-0
0.06979200000000001	0	0	0	0	0	0	-227.832077	1526.458008	-118.861313	1.015614	0	-0.272948	0	0	0	0	-2.766713	0
0.07083299999999999	0	0	0	0	0	0	-225.898865	1548.126709	-114.758034	1.012711	0	-0.27275	0	0	0	0	-5.462691	0
0.07187499999999999	0	0	0	0	0	0	-223.811508	1569.268921	-110.684105	1.009832	0	-0.272562	0	0	0	0	-8.006995	0
0.072917	0	0	0	0	0	0	-221.568405	1589.810669	-106.66124	1.006972	0	-0.272384	0	0	0	0	-10.381324	0
0.073958	0	0	0	0	0	0	-219.169724	1609.682983	-102.711296	1.004126	0	-0.27222	0	0	0	0	-12.568753	0
0.075	0	0	0	0	0	0	-216.617294	1628.823242	-98.855965	1.001291	0	-0.272072	0	0	0	0	-14.554022	0
0.076042	0	0	0	0	0	0	-213.914474	1647.175171	-95.11631800000001	0.998463	0	-0.271941	0	0	0	0	-16.323814	0
0.077083	0	0	0	0	0	0	-211.065887	1664.689941	-91.512405	0.99564	0	-0.27183	0	0	0	0	-17.867014	0
0.078125	0	0	0	0	0	0	-208.077026	1681.326538	-88.06282	0.9928169999999999	0	-0.271743	0	0	0	0	-19.174942	0
0.079167	0	0	0	0	0	0	-204.953979	1697.052856	-84.784317	0.989994	0	-0.271681	0	0	0	0	-20.241568	0
0.080208	0	0	0	0	0	0	-201.702911	1711.844849	-81.691406	0.987166	0	-0.271645	0	0	0	0	-21.063662	0
0.08125	0	0	0	0	0	0	-198.329697	1725.68811	-78.79600499999999	0.984334	0	-0.271639	0	0	0	0	-21.640942	0
0.082292	0	0	0	0	0	0	-194.839478	1738.576904	-76.10717	0.981494	0	-0.271662	0	0	0	0	-21.97613	0
0.083333	0	0	0	0	0	0	-191.236343	1750.513916	-73.630814	0.978646	0	-0.271717	0	0	0	0	-22.074997	0
0.08437500000000001	0	0	0	0	0	0	-187.523041	1761.510376	-71.36956000000001	0.975788	0	-0.271803	0	0	0	0	-21.946327	0
0.08541700000000001	0	0	0	0	0	0	-183.700882	1771.584717	-69.322655	0.9729179999999999	0	-0.271921	0	0	0	0	-21.601833	0
0.08645799999999999	0	0	0	0	0	0	-179.769699	1780.761963	-67.485924	0.970036	0	-0.272069	0	0	0	0	-21.056028	0
0.08749999999999999	0	0	0	0	0	0	-175.727982	1789.07251	-65.851845	0.96714	0	-0.272248	0	0	0	0	-20.326015	0
0.088542	0	0	0	0	0	0	-171.573181	1796.551514	-64.409676	0.964229	0	-0.272454	0	0	0	0	-19.431253	0
0.089583	0	0	0	0	0	0	-167.302078	1803.237183	-63.14571	0.961302	0	-0.272687	0	0	0	0	-18.393255	0
0.090625	0	0	0	0	0	0	-162.911285	1809.169922	-62.043533	0.958359	0	-0.272943	0	0	0	0	-17.235241	0
0.091667	0	0	0	0	0	0	-158.397812	1814.391357	-61.084408	0.9554	0	-0.273219	0	0	0	0	-15.981767	0
0.092708	0	0	0	0	0	0	-153.759628	1818.943115	-60.247696	0.952424	0	-0.273512	0	0	0	0	-14.658304	0
0.09375	0	0	0	0	0	0	-148.996201	1822.865967	-59.511311	0.9494320000000001	0	-0.273818	0	0	0	0	-13.290811	0
0.094792	0	0	0	0	0	0	-144.108871	1826.199097	-58.852245	0.946425	0	-0.274134	0	0	0	0	-11.905279	0
0.095833	0	0	0	0	0	0	-139.101257	1828.979492	-58.247089	0.943404	0	-0.274457	0	0	0	0	-10.527285	0
0.096875	0	0	0	0	0	0	-133.979355	1831.241333	-57.672562	0.940371	0	-0.274781	0	0	0	0	-9.181535	0
0.097917	0	0	0	0	0	0	-128.751511	1833.015503	-57.106056	0.937327	0	-0.275104	0	0	0	0	-7.891437	0
0.098958	0	0	0	0	0	0	-123.428207	1834.329346	-56.526157	0.934274	0	-0.275421	0	0	0	0	-6.678687	0
0.1	0	0	0	0	0	0	-118.021729	1835.206299	-55.913116	0.931214	0	-0.27573	0	0	0	0	-5.562892	0
0.101042	0	0	0	0	0	0	-112.545609	1835.666016	-55.249302	0.9281509999999999	0	-0.276029	0	0	0	0	-4.561241	0
0.102083	0	0	0	0	0	0	-107.014	1835.723999	-54.519569	0.925085	0	-0.276313	0	0	0	0	-3.688215	0
0.103125	0	0	0	0	0	0	-101.441025	1835.391479	-53.711609	0.92202	0	-0.276581	0	0	0	0	-2.955357	0
0.104167	0	0	0	0	0	0	-95.840073	1834.676025	-52.816162	0.918957	0	-0.276832	0	0	0	0	-2.37111	0
0.105208	0	0	0	0	0	0	-90.223198	1833.580566	-51.827225	0.915898	0	-0.277064	0	0	0	0	-1.940708	0
0.10625	0	0	0	0	0	0	-84.600578	1832.104736	-50.742104	0.912844	0	-0.277277	0	0	0	0	-1.666142	0
0.107292	0	0	0	0	0	0	-78.980133	1830.244263	-49.561447	0.909797	0	-0.277472	0	0	0	0	-1.546192	0
0.108333	0	0	0	0	0	0	-73.367287	1827.991089	-48.289154	0.906758	0	-0.277648	0	0	0	0	-1.576523	0
0.109375	0	0	0	0	0	0	-67.764923	1825.334473	-46.932217	0.903726	0	-0.277807	0	0	0	0	-1.749849	0
0.110417	0	0	0	0	0	0	-62.173527	1822.260376	-45.500492	0.900703	0	-0.27795	0	0	0	0	-2.056155	0
0.111458	0	0	0	0	0	0	-56.591446	1818.752686	-44.006413	0.897687	0	-0.27808	0	0	0	0	-2.482974	0
0.1125	0	0	0	0	0	0	-51.01532	1814.793213	-42.464603	0.89468	0	-0.2782	0	0	0	0	-3.01571	0
0.113542	0	0	0	0	0	0	-45.440598	1810.362427	-40.891495	0.891679	0	-0.278311	0	0	0	0	-3.638009	0
0.114583	0	0	0	0	0	0	-39.86208	1805.440186	-39.304874	0.888686	0	-0.278416	0	0	0	0	-4.332145	0
0.115625	0	0	0	0	0	0	-34.274498	1800.006104	-37.723412	0.885698	0	-0.278519	0	0	0	0	-5.079448	0
0.116667	0	0	0	0	0	0	-28.67304	1794.040405	-36.16618	0.8827159999999999	0	-0.278623	0	0	0	0	-5.860728	0
0.117708	0	0	0	0	0	0	-23.053804	1787.524902	-34.652172	0.879738	0	-0.27873	0	0	0	0	-6.656708	0
0.11875	0	0	0	0	0	0	-17.41415	1780.442993	-33.199829	0.876765	0	-0.278844	0	0	0	0	-7.448447	0
0.119792	0	0	0	0	0	0	-11.752921	1772.781128	-31.826597	0.873794	0	-0.278966	0	0	0	0	-8.217746	0
0.120833	0	0	0	0	0	0	-6.070552	1764.528687	-30.54851	0.870827	0	-0.279098	0	0	0	0	-8.947526999999999	0
0.121875	0	0	0	0	0	0	-0.369038	1755.678589	-29.379841	0.867862	0	-0.279243	0	0	0	0	-9.622171	0
0.122917	0	0	0	0	0	0	5.348207	1746.228149	-28.332779	0.8648979999999999	0	-0.279401	0	0	0	0	-10.227826	0
0.123958	0	0	0	0	0	0	11.076574	1736.178589	-27.417187	0.861935	0	-0.279573	0	0	0	0	-10.75265	0
0.125	0	0	0	0	0	0	16.810555	1725.535645	-26.640417	0.858973	0	-0.279758	0	0	0	0	-11.187012	0
0.126042	0	0	0	0	0	0	22.544054	1714.309204	-26.007206	0.856011	0	-0.279958	0	0	0	0	-11.523628	0
0.127083	0	0	0	0	0	0	28.270733	1702.513062	-25.519627	0.853048	0	-0.28017	0	0	0	0	-11.757645	0
0.128125	0	0	0	0	0	0	33.984299	1690.165039	-25.17712	0.850084	0	-0.280393	0	0	0	0	-11.886658	0
0.129167	0	0	0	0	0	0	39.678787	1677.285889	-24.976601	0.847118	0	-0.280626	0	0	0	0	-11.910669	0
0.130208	0	0	0	0	0	0	45.348747	1663.89917	-24.912607	0.844149	0	-0.280866	0	0	0	0	-11.831998	0
0.13125	0	0	0	0	0	0	50.989414	1650.030273	-24.977526	0.841175	0	-0.281111	0	0	0	0	-11.655123	0
0.132292	0	0	0	0	0	0	56.596794	1635.706299	-25.161861	0.838197	0	-0.281358	0	0	0	0	-11.386496	0
0.133333	0	0	0	0	0	0	62.167698	1620.95459	-25.454536	0.835212	0	-0.281604	0	0	0	0	-11.034296	0
0.134375	0	0	0	0	0	0	67.699738	1605.802734	-25.843246	0.83222	0	-0.281846	0	0	0	0	-10.608162	0
0.135417	0	0	0	0	0	0	73.19130699999999	1590.277588	-26.314804	0.82922	0	-0.282081	0	0	0	0	-10.118891	0
0.136458	0	0	0	0	0	0	78.641479	1574.404541	-26.855526	0.82621	0	-0.282305	0	0	0	0	-9.578123	0
0.1375	0	0	0	0	0	0	84.049988	1558.207397	-27.451597	0.823188	0	-0.282516	0	0	0	0	-8.998011	0
0.138542	0	0	0	0	0	0	89.417068	1541.707642	-28.089426	0.820154	0	-0.282711	0	0	0	0	-8.390891	0
0.139583	0	0	0	0	0	0	94.743416	1524.924194	-28.756001	0.817106	0	-0.282887	0	0	0	0	-7.768968	0
0.140625	0	0	0	0	0	0	100.030052	1507.873291	-29.439188	0.814043	0	-0.283042	0	0	0	0	-7.143999	0
0.141667	0	0	0	0	0	0	105.278175	1490.568237	-30.128008	0.810962	0	-0.283173	0	0	0	0	-6.527016	0
0.142708	0	0	0	0	0	0	110.489014	1473.019653	-30.812876	0.807864	0	-0.28328	0	0	0	0	-5.928067	0
0.14375	0	0	0	0	0	0	115.663643	1455.235107	-31.485773	0.804746	0	-0.28336	0	0	0	0	-5.355998	0
0.144792	0	0	0	0	0	0	120.80278	1437.220093	-32.140385	0.801607	0	-0.283413	0	0	0	0	-4.818272	0
0.145833	0	0	0	0	0	0	125.90654	1418.977295	-32.772175	0.798446	0	-0.283439	0	0	0	0	-4.320831	0
0.146875	0	0	0	0	0	0	130.974152	1400.50769	-33.378391	0.7952630000000001	0	-0.283438	0	0	0	0	-3.868006	0
0.147917	0	0	0	0	0	0	136.003754	1381.810425	-33.958065	0.792056	0	-0.283411	0	0	0	0	-3.462467	0
0.148958	0	0	0	0	0	0	140.992081	1362.883179	-34.511883	0.788825	0	-0.283358	0	0	0	0	-3.105232	0
0.15	0	0	0	0	0	0	145.93428	1343.722778	-35.042091	0.785571	0	-0.283281	0	0	0	0	-2.795705	0
0.151042	0	0	0	0	0	0	150.823654	1324.325317	-35.552303	0.782293	0	-0.283183	0	0	0	0	-2.531769	0
0.152083	0	0	0	0	0	0	155.651642	1304.686523	-36.047279	0.778992	0	-0.283064	0	0	0	0	-2.309913	0
0.153125	0	0	0	0	0	0	160.407623	1284.802124	-36.5327	0.7756690000000001	0	-0.282929	0	0	0	0	-2.125397	0
0.154167	0	0	0	0	0	0	165.079117	1264.667969	-37.014896	0.772325	0	-0.282779	0	0	0	0	-1.972437	0
0.155208	0	0	0	0	0	0	169.651764	1244.280762	-37.500568	0.768963	0	-0.282617	0	0	0	0	-1.844428	0
0.15625	0	0	0	0	0	0	174.109619	1223.637817	-37.996513	0.765585	0	-0.282447	0	0	0	0	-1.734169	0
0.157292	0	0	0	0	0	0	178.43544	1202.737671	-38.509323	0.762192	0	-0.282271	0	0	0	0	-1.634111	0
0.158333	0	0	0	0	0	0	182.611053	1181.5802	-39.045147	0.758787	0	-0.282093	0	0	0	0	-1.536598	0
0.159375	0	0	0	0	0	0	186.617767	1160.166748	-39.609409	0.755373	0	-0.281915	0	0	0	0	-1.434116	0
0.160417	0	0	0	0	0	0	190.436829	1138.500732	-40.206593	0.751954	0	-0.28174	0	0	0	0	-1.319521	0
0.161458	0	0	0	0	0	0	194.049835	1116.587402	-40.84005	0.74853	0	-0.281571	0	0	0	0	-1.186261	0
0.1625	0	0	0	0	0	0	197.439255	1094.434204	-41.511837	0.745106	0	-0.28141	0	0	0	0	-1.02857	0
0.163542	0	0	0	0	0	0	200.588699	1072.05127	-42.222576	0.741684	0	-0.281259	0	0	0	0	-0.8416439999999999	0
0.164583	0	0	0	0	0	0	203.483322	1049.450928	-42.971401	0.738266	0	-0.28112	0	0	0	0	-0.62178	0
0.165625	0	0	0	0	0	0	206.110092	1026.648315	-43.755894	0.734853	0	-0.280994	0	0	0	0	-0.366484	0
0.166667	0	0	0	0	0	0	208.457886	1003.661377	-44.572105	0.731449	0	-0.280882	0	0	0	0	-0.07455100000000001	0
0.167708	0	0	0	0	0	0	210.51767	980.510498	-45.414604	0.728055	0	-0.280785	0	0	0	-0	0.253903	-0
0.16875	0	0	0	0	0	0	212.282486	957.218933	-46.276546	0.724671	0	-0.280703	0	0	0	-0	0.617439	-0
0.169792	0	0	0	0	0	0	213.747421	933.812317	-47.149815	0.721299	0	-0.280635	0	0	0	-0	1.013322	-0
0.170833	0	0	0	0	0	0	214.90947	910.318665	-48.025181	0.7179410000000001	0	-0.280582	0	0	0	-0	1.4376	-0
0.171875	0	0	0	0	0	0	215.767456	886.7679440000001	-48.892467	0.714596	0	-0.280541	0	0	0	-0	1.885195	-0
0.172917	0	0	0	0	0	0	216.321793	863.192017	-49.740788	0.711265	0	-0.280511	0	0	0	-0	2.350036	-0
0.173958	0	0	0	0	0	0	216.574356	839.62384	-50.558746	0.70795	0	-0.280492	0	0	0	-0	2.825212	-0
